<svg width="22" height="17" viewBox="0 0 22 17" fill="none" xmlns="http://www.w3.org/2000/svg">
<path opacity="0.7" d="M10.1194 6.48606C10.1194 6.991 10.5288 7.40034 11.0337 7.40034H11.4908C11.9958 7.40034 12.4051 6.991 12.4051 6.48606V1.45748C12.4051 0.952537 12.8145 0.543198 13.3194 0.543198H13.7766C14.2815 0.543198 14.6908 0.952537 14.6908 1.45748V4.20034C14.6908 4.70529 15.1002 5.11463 15.6051 5.11463H16.0623C16.5672 5.11463 16.9766 4.70529 16.9766 4.20034V1.45748C16.9766 0.952537 17.3859 0.543198 17.8908 0.543198H18.348C18.8529 0.543198 19.2623 0.952537 19.2623 1.45748V1.91463C19.2623 2.41957 19.6716 2.82891 20.1766 2.82891H20.6337C21.1387 2.82891 21.548 3.23825 21.548 3.7432V4.20034C21.548 4.70529 21.1387 5.11463 20.6337 5.11463H20.1766C19.6716 5.11463 19.2623 5.52397 19.2623 6.02891V11.0575C19.2623 11.5624 18.8529 11.9718 18.348 11.9718H17.8908C17.3859 11.9718 16.9766 11.5624 16.9766 11.0575V8.31463C16.9766 7.80968 16.5672 7.40034 16.0623 7.40034H15.6051C15.1002 7.40034 14.6908 7.80968 14.6908 8.31463V15.6289C14.6908 16.1339 14.2815 16.5432 13.7766 16.5432H13.3194C12.8145 16.5432 12.4051 16.1339 12.4051 15.6289V10.6003C12.4051 10.0954 11.9958 9.68606 11.4908 9.68606H11.0337C10.5288 9.68606 10.1194 10.0954 10.1194 10.6003V15.6289C10.1194 16.1339 9.71008 16.5432 9.20513 16.5432H8.74799C8.24304 16.5432 7.8337 16.1339 7.8337 15.6289V12.8861C7.8337 12.3811 7.42437 11.9718 6.91942 11.9718H6.46228C5.95733 11.9718 5.54799 12.3811 5.54799 12.8861V15.6289C5.54799 16.1339 5.13865 16.5432 4.63371 16.5432H4.17656C3.67162 16.5432 3.26228 16.1339 3.26228 15.6289V15.1718C3.26228 14.6668 2.85294 14.2575 2.34799 14.2575H1.89085C1.3859 14.2575 0.976562 13.8481 0.976562 13.3432V12.8861C0.976562 12.3811 1.3859 11.9718 1.89085 11.9718H2.34799C2.85294 11.9718 3.26228 11.5624 3.26228 11.0575V6.02891C3.26228 5.52397 3.67162 5.11463 4.17656 5.11463H4.63371C5.13865 5.11463 5.54799 5.52397 5.54799 6.02891V8.77177C5.54799 9.27672 5.95733 9.68606 6.46228 9.68606H6.91942C7.42437 9.68606 7.8337 9.27672 7.8337 8.77177V1.45748C7.8337 0.952538 8.24304 0.543198 8.74799 0.543198H9.20513C9.71008 0.543198 10.1194 0.952537 10.1194 1.45748V6.48606Z" fill="black"/>
</svg>
