<svg width="58" height="68" viewBox="0 0 58 68" fill="none" xmlns="http://www.w3.org/2000/svg">
<g filter="url(#filter0_d_361_4191)">
<path d="M28.9765 6.18579C18.4721 6.18579 9.92524 14.7327 9.92524 25.2252C9.85618 40.5733 28.2526 53.2996 28.9765 53.814C28.9765 53.814 48.0969 40.5733 48.0278 25.2371C48.0278 14.7327 39.4809 6.18579 28.9765 6.18579Z" fill="#FA4C64"/>
<path d="M28.9768 3.68579C40.858 3.68595 50.5215 13.346 50.5276 25.2258L50.5256 25.6301C50.4007 34.1142 45.1735 41.7046 40.3743 46.9622C37.8899 49.6837 35.4112 51.8982 33.5559 53.4319C32.6264 54.2003 31.8485 54.8023 31.2981 55.2151C31.0228 55.4216 30.8034 55.5808 30.6506 55.6907C30.5744 55.7455 30.5151 55.7888 30.4729 55.8186C30.4518 55.8335 30.4343 55.8453 30.4221 55.8538C30.4162 55.8579 30.4112 55.8609 30.4075 55.8635C30.4056 55.8648 30.4039 55.8665 30.4026 55.8674L30.4006 55.8684L28.9768 53.8137L30.3997 55.8694L28.9583 56.8674L27.5286 55.8518C27.1358 55.5727 22.1718 52.1348 17.301 46.761C12.4979 41.4618 7.38629 33.8462 7.42505 25.2141C7.43104 13.3449 17.0964 3.68579 28.9768 3.68579Z" stroke="white" stroke-width="5"/>
</g>
<defs>
<filter id="filter0_d_361_4191" x="0.925049" y="1.18579" width="56.103" height="66.7356" filterUnits="userSpaceOnUse" color-interpolation-filters="sRGB">
<feFlood flood-opacity="0" result="BackgroundImageFix"/>
<feColorMatrix in="SourceAlpha" type="matrix" values="0 0 0 0 0 0 0 0 0 0 0 0 0 0 0 0 0 0 127 0" result="hardAlpha"/>
<feOffset dy="4"/>
<feGaussianBlur stdDeviation="2"/>
<feComposite in2="hardAlpha" operator="out"/>
<feColorMatrix type="matrix" values="0 0 0 0 0 0 0 0 0 0 0 0 0 0 0 0 0 0 0.25 0"/>
<feBlend mode="normal" in2="BackgroundImageFix" result="effect1_dropShadow_361_4191"/>
<feBlend mode="normal" in="SourceGraphic" in2="effect1_dropShadow_361_4191" result="shape"/>
</filter>
</defs>
</svg>
