<svg width="57" height="68" viewBox="0 0 57 68" fill="none" xmlns="http://www.w3.org/2000/svg">
<g filter="url(#filter0_d_363_4214)">
<path d="M28.1787 6.18579C17.6743 6.18579 9.12739 14.7327 9.12739 25.2252C9.05833 40.5733 27.4547 53.2996 28.1787 53.814C28.1787 53.814 47.299 40.5733 47.2299 25.2371C47.2299 14.7327 38.6831 6.18579 28.1787 6.18579Z" fill="#C5ED19"/>
<path d="M28.179 3.68579C40.0602 3.68595 49.7236 13.346 49.7297 25.2258L49.7278 25.6301C49.6029 34.1142 44.3756 41.7046 39.5764 46.9622C37.0921 49.6837 34.6133 51.8982 32.7581 53.4319C31.8286 54.2003 31.0507 54.8023 30.5002 55.2151C30.2249 55.4216 30.0055 55.5808 29.8528 55.6907C29.7765 55.7455 29.7173 55.7888 29.675 55.8186C29.6539 55.8335 29.6364 55.8453 29.6243 55.8538C29.6184 55.8579 29.6133 55.8609 29.6096 55.8635C29.6077 55.8648 29.606 55.8665 29.6047 55.8674L29.6028 55.8684L28.179 53.8137L29.6018 55.8694L28.1604 56.8674L26.7307 55.8518C26.3379 55.5727 21.3739 52.1348 16.5032 46.761C11.7001 41.4618 6.58844 33.8462 6.6272 25.2141C6.63319 13.3449 16.2986 3.68579 28.179 3.68579Z" stroke="white" stroke-width="5"/>
</g>
<defs>
<filter id="filter0_d_363_4214" x="0.127197" y="1.18579" width="56.103" height="66.7356" filterUnits="userSpaceOnUse" color-interpolation-filters="sRGB">
<feFlood flood-opacity="0" result="BackgroundImageFix"/>
<feColorMatrix in="SourceAlpha" type="matrix" values="0 0 0 0 0 0 0 0 0 0 0 0 0 0 0 0 0 0 127 0" result="hardAlpha"/>
<feOffset dy="4"/>
<feGaussianBlur stdDeviation="2"/>
<feComposite in2="hardAlpha" operator="out"/>
<feColorMatrix type="matrix" values="0 0 0 0 0 0 0 0 0 0 0 0 0 0 0 0 0 0 0.25 0"/>
<feBlend mode="normal" in2="BackgroundImageFix" result="effect1_dropShadow_363_4214"/>
<feBlend mode="normal" in="SourceGraphic" in2="effect1_dropShadow_363_4214" result="shape"/>
</filter>
</defs>
</svg>
