<svg width="57" height="68" viewBox="0 0 57 68" fill="none" xmlns="http://www.w3.org/2000/svg">
<g filter="url(#filter0_d_363_4212)">
<path d="M28.1792 6.18579C17.6748 6.18579 9.12788 14.7327 9.12788 25.2252C9.05882 40.5733 27.4552 53.2996 28.1792 53.814C28.1792 53.814 47.2995 40.5733 47.2304 25.2371C47.2304 14.7327 38.6835 6.18579 28.1792 6.18579Z" fill="#FF8E2E"/>
<path d="M28.1794 3.68579C40.0607 3.68595 49.7241 13.346 49.7302 25.2258L49.7283 25.6301C49.6034 34.1142 44.3761 41.7046 39.5769 46.9622C37.0926 49.6837 34.6138 51.8982 32.7585 53.4319C31.829 54.2003 31.0511 54.8023 30.5007 55.2151C30.2254 55.4216 30.006 55.5808 29.8533 55.6907C29.777 55.7455 29.7178 55.7888 29.6755 55.8186C29.6544 55.8335 29.6369 55.8453 29.6248 55.8538C29.6188 55.8579 29.6138 55.8609 29.6101 55.8635C29.6082 55.8648 29.6065 55.8665 29.6052 55.8674L29.6033 55.8684L28.1794 53.8137L29.6023 55.8694L28.1609 56.8674L26.7312 55.8518C26.3384 55.5727 21.3744 52.1348 16.5037 46.761C11.7005 41.4618 6.58893 33.8462 6.62769 25.2141C6.63368 13.3449 16.299 3.68579 28.1794 3.68579Z" stroke="white" stroke-width="5"/>
</g>
<defs>
<filter id="filter0_d_363_4212" x="0.127686" y="1.18579" width="56.103" height="66.7356" filterUnits="userSpaceOnUse" color-interpolation-filters="sRGB">
<feFlood flood-opacity="0" result="BackgroundImageFix"/>
<feColorMatrix in="SourceAlpha" type="matrix" values="0 0 0 0 0 0 0 0 0 0 0 0 0 0 0 0 0 0 127 0" result="hardAlpha"/>
<feOffset dy="4"/>
<feGaussianBlur stdDeviation="2"/>
<feComposite in2="hardAlpha" operator="out"/>
<feColorMatrix type="matrix" values="0 0 0 0 0 0 0 0 0 0 0 0 0 0 0 0 0 0 0.25 0"/>
<feBlend mode="normal" in2="BackgroundImageFix" result="effect1_dropShadow_363_4212"/>
<feBlend mode="normal" in="SourceGraphic" in2="effect1_dropShadow_363_4212" result="shape"/>
</filter>
</defs>
</svg>
